<svg width="24" height="24" viewBox="0 0 24 24" fill="none"
  xmlns="http://www.w3.org/2000/svg">
  <path fill-rule="evenodd" clip-rule="evenodd" fill="#111827" d="M12 23.4271C12.3788 23.4271 12.7421 23.2766 13.01 23.0088C13.2778 22.7409 13.4283 22.3776 13.4283 21.9988V5.45035L19.5586 11.5835C19.6914 11.7163 19.8491 11.8217 20.0226 11.8935C20.1961 11.9654 20.3821 12.0024 20.5699 12.0024C20.7577 12.0024 20.9437 11.9654 21.1172 11.8935C21.2907 11.8217 21.4483 11.7163 21.5811 11.5835C21.7139 11.4507 21.8193 11.2931 21.8911 11.1196C21.963 10.9461 22 10.7601 22 10.5723C22 10.3845 21.963 10.1985 21.8911 10.025C21.8193 9.85149 21.7139 9.69383 21.5811 9.56104L13.0112 0.991154C12.8786 0.85814 12.721 0.752608 12.5474 0.680602C12.3739 0.608597 12.1879 0.571533 12 0.571533C11.8121 0.571533 11.6261 0.608597 11.4526 0.680602C11.279 0.752608 11.1214 0.85814 10.9888 0.991154L2.41887 9.56104C2.15067 9.82923 2 10.193 2 10.5723C2 10.9516 2.15067 11.3153 2.41887 11.5835C2.68707 11.8517 3.05083 12.0024 3.43012 12.0024C3.80941 12.0024 4.17317 11.8517 4.44136 11.5835L10.5717 5.45035V21.9988C10.5717 22.3776 10.7222 22.7409 10.99 23.0088C11.2579 23.2766 11.6212 23.4271 12 23.4271Z"/>
</svg>
