<svg width="189" height="189" viewBox="0 0 189 189" fill="none"
  xmlns="http://www.w3.org/2000/svg">
  <path d="M94.5 0C68.8551 0 65.6303 0.118125 55.5542 0.567C45.4781 1.0395 38.6151 2.62237 32.6025 4.96125C26.2957 7.33343 20.5832 11.0544 15.8642 15.8642C11.0574 20.5856 7.33683 26.2975 4.96125 32.6025C2.62237 38.6033 1.02769 45.4781 0.567 55.5187C0.118125 65.6184 0 68.8314 0 94.5118C0 120.169 0.118125 123.382 0.567 133.458C1.0395 143.522 2.62237 150.385 4.96125 156.397C7.38281 162.611 10.6076 167.879 15.8642 173.136C21.1089 178.392 26.3773 181.629 32.5907 184.039C38.6151 186.378 45.4663 187.972 55.5306 188.433C65.6184 188.882 68.8314 189 94.5 189C120.169 189 123.37 188.882 133.458 188.433C143.51 187.96 150.397 186.378 156.409 184.039C162.712 181.665 168.42 177.944 173.136 173.136C178.392 167.879 181.617 162.611 184.039 156.397C186.366 150.385 187.96 143.522 188.433 133.458C188.882 123.382 189 120.169 189 94.5C189 68.8314 188.882 65.6184 188.433 55.5306C187.96 45.4781 186.366 38.6033 184.039 32.6025C181.664 26.2973 177.943 20.5854 173.136 15.8642C168.418 11.0527 162.705 7.33137 156.397 4.96125C150.373 2.62237 143.498 1.02769 133.446 0.567C123.358 0.118125 120.157 0 94.4764 0H94.5118H94.5ZM86.0304 17.0336H94.5118C119.743 17.0336 122.732 17.1163 132.69 17.577C141.904 17.9904 146.912 19.5379 150.243 20.8254C154.649 22.5383 157.803 24.5936 161.111 27.9011C164.418 31.2086 166.462 34.3508 168.175 38.7686C169.474 42.0879 171.01 47.0964 171.423 56.3102C171.884 66.2681 171.978 69.2567 171.978 94.4764C171.978 119.696 171.884 122.696 171.423 132.654C171.01 141.868 169.462 146.865 168.175 150.196C166.66 154.299 164.241 158.009 161.099 161.052C157.791 164.359 154.649 166.403 150.231 168.116C146.924 169.415 141.915 170.951 132.69 171.376C122.732 171.825 119.743 171.931 94.5118 171.931C69.2803 171.931 66.2799 171.825 56.322 171.376C47.1083 170.951 42.1116 169.415 38.7804 168.116C34.6756 166.603 30.9621 164.189 27.9129 161.052C24.7679 158.004 22.346 154.291 20.8254 150.184C19.5379 146.865 17.9904 141.856 17.577 132.643C17.1281 122.685 17.0336 119.696 17.0336 94.4527C17.0336 69.2212 17.1281 66.2445 17.577 56.2866C18.0023 47.0728 19.5379 42.0643 20.8373 38.7332C22.5501 34.3271 24.6054 31.1732 27.9129 27.8657C31.2204 24.5582 34.3626 22.5146 38.7804 20.8018C42.1116 19.5024 47.1083 17.9668 56.322 17.5416C65.0396 17.1399 68.418 17.0218 86.0304 17.01V17.0336V17.0336ZM144.951 32.7206C143.462 32.7206 141.987 33.0139 140.612 33.5838C139.236 34.1537 137.986 34.989 136.933 36.042C135.88 37.0951 135.044 38.3452 134.474 39.721C133.904 41.0968 133.611 42.5714 133.611 44.0606C133.611 45.5498 133.904 47.0244 134.474 48.4003C135.044 49.7761 135.88 51.0262 136.933 52.0792C137.986 53.1322 139.236 53.9675 140.612 54.5374C141.987 55.1073 143.462 55.4006 144.951 55.4006C147.959 55.4006 150.843 54.2059 152.97 52.0792C155.096 49.9526 156.291 47.0682 156.291 44.0606C156.291 41.0531 155.096 38.1687 152.97 36.042C150.843 33.9154 147.959 32.7206 144.951 32.7206V32.7206ZM94.5118 45.9742C88.0748 45.8738 81.6822 47.0549 75.7061 49.4488C69.7299 51.8427 64.2897 55.4015 59.7022 59.918C55.1146 64.4345 51.4714 69.8186 48.9846 75.7566C46.4978 81.6947 45.2171 88.0681 45.2171 94.5059C45.2171 100.944 46.4978 107.317 48.9846 113.255C51.4714 119.193 55.1146 124.577 59.7022 129.094C64.2897 133.61 69.7299 137.169 75.7061 139.563C81.6822 141.957 88.0748 143.138 94.5118 143.038C107.252 142.839 119.403 137.638 128.343 128.558C137.282 119.479 142.292 107.248 142.292 94.5059C142.292 81.7641 137.282 69.5332 128.343 60.4534C119.403 51.3736 107.252 46.173 94.5118 45.9742V45.9742ZM94.5118 62.9961C102.867 62.9961 110.88 66.3152 116.788 72.2234C122.697 78.1315 126.016 86.1446 126.016 94.5C126.016 102.855 122.697 110.869 116.788 116.777C110.88 122.685 102.867 126.004 94.5118 126.004C86.1565 126.004 78.1433 122.685 72.2352 116.777C66.327 110.869 63.0079 102.855 63.0079 94.5C63.0079 86.1446 66.327 78.1315 72.2352 72.2234C78.1433 66.3152 86.1565 62.9961 94.5118 62.9961V62.9961Z" fill="white"/>
</svg>
