<svg width="189" height="189" viewBox="0 0 189 189" fill="none"
  xmlns="http://www.w3.org/2000/svg">
  <path fill-rule="evenodd" clip-rule="evenodd" d="M7.875 22.3493C7.875 18.5105 9.39996 14.8289 12.1144 12.1144C14.8289 9.39998 18.5104 7.87502 22.3493 7.87502H166.635C168.537 7.87191 170.422 8.24406 172.18 8.97017C173.938 9.69627 175.536 10.7621 176.882 12.1065C178.228 13.451 179.296 15.0478 180.024 16.8053C180.752 18.5629 181.126 20.4469 181.125 22.3493V166.635C181.127 168.538 180.754 170.422 180.027 172.181C179.3 173.939 178.233 175.537 176.888 176.883C175.543 178.229 173.946 179.296 172.188 180.024C170.43 180.752 168.546 181.126 166.643 181.125H22.3493C20.4478 181.125 18.565 180.75 16.8084 180.022C15.0518 179.295 13.4558 178.228 12.1116 176.883C10.7675 175.538 9.70146 173.941 8.97453 172.184C8.24759 170.427 7.87397 168.544 7.875 166.643V22.3493ZM76.4505 73.9305H99.9101V85.7115C103.296 78.939 111.959 72.8438 124.976 72.8438C149.932 72.8438 155.846 86.3336 155.846 111.085V156.933H130.591V116.723C130.591 102.627 127.205 94.6733 118.605 94.6733C106.675 94.6733 101.714 103.249 101.714 116.723V156.933H76.4505V73.9305ZM33.138 155.854H58.401V72.8438H33.138V155.846V155.854ZM62.0156 45.7695C62.0633 47.9326 61.6784 50.0833 60.8835 52.0956C60.0887 54.1079 58.8999 55.9411 57.387 57.4878C55.874 59.0344 54.0674 60.2632 52.0731 61.1022C50.0788 61.9411 47.937 62.3733 45.7734 62.3733C43.6099 62.3733 41.4681 61.9411 39.4738 61.1022C37.4795 60.2632 35.6729 59.0344 34.1599 57.4878C32.647 55.9411 31.4582 54.1079 30.6634 52.0956C29.8685 50.0833 29.4836 47.9326 29.5313 45.7695C29.6247 41.5237 31.377 37.4834 34.4128 34.5137C37.4487 31.544 41.5266 29.8811 45.7734 29.8811C50.0202 29.8811 54.0982 31.544 57.134 34.5137C60.1698 37.4834 61.9221 41.5237 62.0156 45.7695V45.7695Z" fill="white"/>
</svg>
