<svg width="88" height="88" viewBox="0 0 88 88" fill="none"
  xmlns="http://www.w3.org/2000/svg">
  <g clip-path="url(#clip0)">
    <path d="M44 0L11 16.4395V55.121C11 63.8731 14.4768 72.2668 20.6655 78.4555C26.8542 84.6442 35.2479 88.121 44 88.121C52.7521 88.121 61.1458 84.6442 67.3345 78.4555C73.5232 72.2668 77 63.8731 77 55.121V16.4395L44 0ZM62.7825 75.1135L44 65.758V71.885L57.849 78.7848C53.6768 81.2149 48.9384 82.5039 44.1101 82.5223C39.2819 82.5407 34.5338 81.2878 30.3432 78.8896C26.1526 76.4913 22.6671 73.0322 20.2371 68.86C17.8072 64.6877 16.5183 59.9493 16.5 55.121V19.8275L44 6.127L71.5 19.8275V30.14L44 16.4395V22.5665L71.5 36.267V46.5795L44 32.879V39.006L71.5 52.7065V55.121C71.5013 57.6191 71.1589 60.1055 70.4825 62.5103L44 49.3185V55.4455L68.4613 67.6308C67.0103 70.4315 65.0895 72.9625 62.7825 75.1135V75.1135Z" fill="url(#paint0_radial)"/>
  </g>
  <defs>
    <radialGradient id="paint0_radial" cx="0" cy="0" r="1" gradientUnits="userSpaceOnUse" gradientTransform="translate(44 44.0605) rotate(90) scale(44.0605 33)">
      <stop stop-color="#4200FF"/>
      <stop offset="1" stop-color="#D203BE"/>
    </radialGradient>
    <clipPath id="clip0">
      <rect width="88" height="88" fill="white"/>
    </clipPath>
  </defs>
</svg>
