<svg width="187" height="189" viewBox="0 0 187 189" fill="none"
  xmlns="http://www.w3.org/2000/svg">
  <g clip-path="url(#clip0)">
    <path d="M49.3758 161.871L52.4297 163.398C65.1562 171.033 79.4085 174.597 93.6616 174.597C138.456 174.597 175.106 137.947 175.106 93.1522C175.106 71.7733 166.452 50.903 151.182 35.632C135.911 20.3609 115.549 11.7078 93.6616 11.7078C48.8672 11.7078 12.2165 48.3577 12.7258 93.6615C12.7258 108.932 17.3071 123.694 24.9422 136.419L26.9782 139.474L18.8344 169.507L49.3758 161.871Z" fill="#00E676"/>
    <path d="M159.835 27.4875C142.528 9.67184 118.604 0 94.1702 0C42.2499 0 0.509351 42.2492 1.01797 93.6608C1.01797 109.95 5.59922 125.73 13.2351 139.983L0 188.34L49.3757 175.615C63.1194 183.25 78.3898 186.814 93.6615 186.814C145.073 186.814 186.814 144.564 186.814 93.1529C186.814 68.21 177.142 44.7945 159.836 27.4875H159.835ZM94.1702 171.034C80.4264 171.034 66.6827 167.472 54.9749 160.345L51.921 158.818L22.3976 166.453L30.0328 137.439L27.9968 134.384C5.59922 98.2435 16.289 50.3937 52.939 27.9961C89.5889 5.59922 136.929 16.289 159.326 52.939C181.723 89.5889 171.033 136.929 134.384 159.326C122.676 166.961 108.423 171.033 94.1702 171.033V171.034ZM138.965 114.533L133.365 111.987C133.365 111.987 125.222 108.424 120.131 105.879C119.622 105.879 119.113 105.369 118.604 105.369C117.076 105.369 116.058 105.879 115.04 106.388C115.04 106.388 114.532 106.897 107.405 115.041C106.896 116.059 105.878 116.568 104.86 116.568H104.351C103.842 116.568 102.824 116.059 102.315 115.551L99.7694 114.533C94.1702 111.987 89.0803 108.933 85.0077 104.861C83.9897 103.843 82.4624 102.825 81.4444 101.807C77.8811 98.2435 74.3179 94.1709 71.7733 89.5896L71.2639 88.5717C70.7553 88.0623 70.7553 87.5537 70.246 86.5357C70.246 85.5178 70.246 84.4998 70.7553 83.9904C70.7553 83.9904 72.7913 81.4451 74.3179 79.9185C75.3366 78.8998 75.8452 77.3732 76.8632 76.3553C77.8811 74.8279 78.3905 72.792 77.8811 71.2647C77.3725 68.7194 71.2639 54.9756 69.7374 51.9217C68.7186 50.3944 67.7014 49.8858 66.1741 49.3764H60.5749C59.5562 49.3764 58.5389 49.8858 57.5202 49.8858L57.0109 50.3944C55.9929 50.9038 54.9749 51.9217 53.9569 52.4303C52.939 53.4491 52.4296 54.4663 51.4116 55.485C47.8484 60.0662 45.8124 65.6655 45.8124 71.2647C45.8124 75.3366 46.8304 79.4092 48.3577 82.9725L48.8671 84.4998C53.4483 94.1709 59.5562 102.825 67.7014 110.46L69.7374 112.496C71.2639 114.023 72.7913 115.041 73.8092 116.568C84.4991 125.731 96.7155 132.348 110.459 135.911C111.987 136.42 114.022 136.42 115.55 136.929H120.64C123.185 136.929 126.239 135.911 128.276 134.893C129.802 133.875 130.82 133.875 131.838 132.858L132.857 131.839C133.875 130.821 134.893 130.312 135.911 129.294C136.929 128.276 137.947 127.258 138.456 126.24C139.474 124.204 139.983 121.658 140.492 119.114V115.551C140.492 115.551 139.983 115.041 138.965 114.533V114.533Z" fill="white"/>
  </g>
  <defs>
    <clipPath id="clip0">
      <rect width="186.811" height="189" fill="white"/>
    </clipPath>
  </defs>
</svg>
